# xmcd
# 
# Track frame offsets:
#     150
#     13518
#     29785
#     45610
#     60828
#     74778
#     90387
#     110585
#     128595
#     144840
#     161490
#     175500
# 
# Disc length: 2558
# 
# Revision: 8
# Processed by: cddbd v1.5.2PL0 Copyright (c) Steve Scherf et al.
# Submitted via: fre:ac v1.0.17
# 
DISCID=9609fc0c
DTITLE=Olivia Newton-John - Best Of Olivia Newton-John, The
DYEAR=2002
DGENRE=Country
TTITLE0=Let Me Be There
TTITLE1=I Honestly Love You
TTITLE2=Have You Never Been Mellow
TTITLE3=Please Mr. Please
TTITLE4=Hopelessly Devoted To You
TTITLE5=A Little More Love
TTITLE6=Magic
TTITLE7=Suddenly (Duet With Cliff Richard)
TTITLE8=Deeper Than The Night
TTITLE9=Physical
TTITLE10=Heart Attack
TTITLE11=Twist Of Fate (Duet with John Travolta)
EXTD=
EXTT0=
EXTT1=
EXTT2=
EXTT3=
EXTT4=
EXTT5=
EXTT6=
EXTT7=
EXTT8=
EXTT9=
EXTT10=
EXTT11=
PLAYORDER=
